<?xml version="1.0" encoding="iso-8859-1"?>
<!-- Generator: Adobe Illustrator 19.0.0, SVG Export Plug-In . SVG Version: 6.00 Build 0)  -->
<svg xmlns="http://www.w3.org/2000/svg" xmlns:xlink="http://www.w3.org/1999/xlink" version="1.1" id="Capa_1" x="0px" y="0px" viewBox="0 0 480 480" style="enable-background:new 0 0 480 480;" xml:space="preserve" width="512px" height="512px">
<g>
	<g>
		<path d="M472,368h-8V88c-0.026-22.08-17.92-39.974-40-40H56c-22.08,0.026-39.974,17.92-40,40v280H8c-4.418,0-8,3.582-8,8v16    c0.026,22.08,17.92,39.974,40,40h400c22.08-0.026,39.974-17.92,40-40v-16C480,371.582,476.418,368,472,368z M56,64h368    c10.134,0.042,19.15,6.445,22.528,16H33.472C36.85,70.445,45.866,64.042,56,64z M32,96h416v240H32V96z M32,352h416v16H32V352z     M464,392c0,13.255-10.745,24-24,24H40c-13.255,0-24-10.745-24-24v-8h448V392z" fill="#9b45e0"/>
	</g>
</g>
<g>
	<g>
		<path d="M161.76,216c3.995-4.373,6.219-10.077,6.24-16c0-13.255-10.745-24-24-24h-8v-8h-16v8H96v16h8v48h-8v16h24v8h16v-8h8    c13.197,0.058,23.943-10.593,24.002-23.79C168.028,226.215,165.8,220.429,161.76,216z M144,240h-24v-16h24c4.418,0,8,3.582,8,8    S148.418,240,144,240z M144,208h-24v-16h24c4.418,0,8,3.582,8,8S148.418,208,144,208z" fill="#9b45e0"/>
	</g>
</g>
<g>
	<g>
		<path d="M400.099,273.373c-6.835,2.416-12.211,7.793-14.627,14.627h-174.16l-21.408-21.408    c4.618-5.651,8.442-11.906,11.368-18.592h112.2c4.418,12.497,18.131,19.046,30.627,14.627s19.046-18.131,14.627-30.627    c-4.418-12.497-18.131-19.046-30.627-14.627c-6.835,2.416-12.211,7.793-14.627,14.627H206.4c2.712-13.293,1.999-27.058-2.072-40    h61.16c4.418,12.497,18.131,19.046,30.627,14.627c12.497-4.418,19.046-18.131,14.627-30.627    c-4.418-12.497-18.131-19.046-30.627-14.627c-6.835,2.416-12.211,7.793-14.627,14.627h-68.312c-1.2-2.064-2.472-4.072-3.848-6.016    L219.312,144h166.16c4.418,12.497,18.131,19.046,30.627,14.627c12.497-4.418,19.046-18.131,14.627-30.627    c-4.418-12.497-18.131-19.046-30.627-14.627c-6.835,2.416-12.211,7.793-14.627,14.627H216c-2.122,0-4.156,0.844-5.656,2.344    l-27.536,27.536c-32.112-30.347-82.745-28.917-113.092,3.195c-30.347,32.112-28.917,82.745,3.195,113.092    c29.271,27.662,74.541,29.253,105.681,3.713l23.752,23.752c1.496,1.509,3.531,2.361,5.656,2.368h177.472    c4.418,12.497,18.131,19.046,30.627,14.627s19.046-18.131,14.627-30.627C426.309,275.503,412.596,268.954,400.099,273.373z     M336,232c4.418,0,8,3.582,8,8s-3.582,8-8,8s-8-3.582-8-8S331.582,232,336,232z M288,176c4.418,0,8,3.582,8,8s-3.582,8-8,8    s-8-3.582-8-8S283.582,176,288,176z M408,128c4.418,0,8,3.582,8,8s-3.582,8-8,8s-8-3.582-8-8S403.582,128,408,128z     M173.528,260.912c-0.112,0.096-0.264,0.136-0.368,0.248c-0.104,0.112-0.152,0.256-0.248,0.368    c-25.118,24.831-65.61,24.598-90.44-0.52C70.626,249.024,63.987,232.85,64,216c-0.038-35.346,28.586-64.03,63.932-64.068    c35.346-0.038,64.03,28.586,64.068,63.932C192.018,232.727,185.38,248.916,173.528,260.912z M408,304c-4.418,0-8-3.582-8-8    s3.582-8,8-8s8,3.582,8,8S412.418,304,408,304z" fill="#9b45e0"/>
	</g>
</g>
<g>
</g>
<g>
</g>
<g>
</g>
<g>
</g>
<g>
</g>
<g>
</g>
<g>
</g>
<g>
</g>
<g>
</g>
<g>
</g>
<g>
</g>
<g>
</g>
<g>
</g>
<g>
</g>
<g>
</g>
</svg>
